<?xml version="1.0" encoding="utf-8"?>
<!-- Generator: Adobe Illustrator 12.0.0, SVG Export Plug-In . SVG Version: 6.00 Build 51448)  -->
<!DOCTYPE svg PUBLIC "-//W3C//DTD SVG 1.1//EN" "http://www.w3.org/Graphics/SVG/1.1/DTD/svg11.dtd" [
	<!ENTITY ns_svg "http://www.w3.org/2000/svg">
	<!ENTITY ns_xlink "http://www.w3.org/1999/xlink">
]>
<svg  version="1.1" id="Layer_1" xmlns="&ns_svg;" xmlns:xlink="&ns_xlink;" width="601" height="601" viewBox="0 0 601 601"
	 overflow="visible" enable-background="new 0 0 601 601" xml:space="preserve">
<g>
	<g>
		<path fill-rule="evenodd" clip-rule="evenodd" fill="#FFFFFF" d="M300.5,0.5
			c34.6757813,10.5830078,71.484375,16.2758789,109.6230469,16.2758789S485.0703125,11.0830078,519.7460938,0.5
			C570.3115234,64.4082031,600.5,145.1787109,600.5,233.0004883c0,181.425293-128.8300781,332.7553711-300,367.4995117
			c-171.1699219-34.7441406-300-186.0742188-300-367.4995117C0.5,145.1787109,30.6884766,64.4082031,81.2539063,0.5
			c34.675293,10.5830078,71.484375,16.2758789,109.6230469,16.2758789S265.8251953,11.0830078,300.5,0.5z"/>
		
			<path fill-rule="evenodd" clip-rule="evenodd" fill="none" stroke="#000000" stroke-linecap="round" stroke-linejoin="round" stroke-miterlimit="3.863693" d="
			M300.5,0.5c34.6757813,10.5830078,71.484375,16.2758789,109.6230469,16.2758789S485.0703125,11.0830078,519.7460938,0.5
			C570.3115234,64.4082031,600.5,145.1787109,600.5,233.0004883c0,181.425293-128.8300781,332.7553711-300,367.4995117
			c-171.1699219-34.7441406-300-186.0742188-300-367.4995117C0.5,145.1787109,30.6884766,64.4082031,81.2539063,0.5
			c34.675293,10.5830078,71.484375,16.2758789,109.6230469,16.2758789S265.8251953,11.0830078,300.5,0.5z"/>
	</g>
	<g>
		<path fill="#003882" d="M27.4912109,140.5h546.0175781C581.3320313,170.0141602,585.5,201.0175781,585.5,233.0004883
			c0,173.0952148-122.171875,317.6831055-285,352.1811523c-162.8271484-34.4980469-285-179.0859375-285-352.1811523
			C15.5,201.0175781,19.6679688,170.0141602,27.4912109,140.5z"/>
	</g>
	<g>
		<path fill="#B01C2E" d="M410.1230469,31.7758789c35.9863281,0,70.8574219-4.8774414,103.9746094-14.0161133
			C538.1416016,49.9438477,556.9257813,86.2783203,569.1796875,125.5H31.8198242
			C44.0742188,86.2783203,62.8583984,49.9438477,86.9023438,17.7597656
			c33.1171875,9.1386719,67.987793,14.0161133,103.9746094,14.0161133c38.0390625,0,74.831543-5.4501953,109.6240234-15.6206055
			C335.2929688,26.3256836,372.0839844,31.7758789,410.1230469,31.7758789z"/>
	</g>
	<g>
		<g>
			
				<rect x="116.7597656" y="49.5722656" fill-rule="evenodd" clip-rule="evenodd" fill="#FFFFFF" width="8.3974609" height="59.855957"/>
		</g>
		<g>
			<polygon fill-rule="evenodd" clip-rule="evenodd" fill="#FFFFFF" points="165.4921875,109.4282227 146.9995117,69.315918 
				146.9995117,109.4282227 138.4228516,109.4282227 138.4228516,49.5722656 146.9995117,49.5722656 163.4375,85.4858398 
				163.4375,49.5722656 172.0141602,49.5722656 172.0141602,109.4282227 			"/>
		</g>
		<g>
			<polygon fill-rule="evenodd" clip-rule="evenodd" fill="#FFFFFF" points="200.0205078,57.5234375 200.0205078,109.4282227 
				191.3544922,109.4282227 191.3544922,57.5234375 180.4555664,57.5234375 180.4555664,49.5722656 210.9194336,49.5722656 
				210.9194336,57.5234375 			"/>
		</g>
		<g>
			<polygon fill-rule="evenodd" clip-rule="evenodd" fill="#FFFFFF" points="219.0478516,109.4282227 219.0478516,49.5722656 
				247.1894531,49.5722656 247.1894531,57.9697266 227.6245117,57.9697266 227.6245117,73.0678711 240.0424805,73.0678711 
				240.0424805,81.2866211 227.6245117,81.2866211 227.6245117,101.0302734 249.512207,101.0302734 249.512207,109.4282227 			"/>
		</g>
		<g>
			<path fill-rule="evenodd" clip-rule="evenodd" fill="#FFFFFF" d="M284.4418945,109.4282227l-7.9511719-28.1416016h-8.2192383
				v28.1416016h-8.5761719v-59.855957H277.5625c2.3232422,0,4.4521484,0.387207,6.3876953,1.1611328
				c1.9355469,0.7744141,3.6035156,1.8466797,5.0029297,3.2163086c1.4003906,1.3696289,2.4716797,3.0522461,3.2163086,5.0473633
				c0.7446289,1.9956055,1.1166992,4.184082,1.1166992,6.5664063c0,3.5737305-0.7148438,6.6108398-2.144043,9.1123047
				s-3.5737305,4.2880859-6.4321289,5.3598633l8.5761719,29.3925781H284.4418945z M284.8886719,65.5634766
				c0-2.3227539-0.7148438-4.1689453-2.1445313-5.5390625c-1.4291992-1.3696289-3.3046875-2.0546875-5.6279297-2.0546875h-8.8447266
				v15.0981445h8.8447266c2.5014648,0,4.421875-0.6401367,5.762207-1.9213867
				C284.21875,69.8666992,284.8886719,68.0053711,284.8886719,65.5634766z"/>
		</g>
		<g>
			<path fill-rule="evenodd" clip-rule="evenodd" fill="#FFFFFF" d="M333.9335938,93.0795898
				c0,2.4418945-0.4316406,4.7197266-1.2949219,6.8339844c-0.8642578,2.1142578-2.0546875,3.9458008-3.5742188,5.4941406
				c-1.5185547,1.5488281-3.2753906,2.784668-5.2705078,3.7075195C321.7988281,110.0385742,319.6396484,110.5,317.3164063,110.5
				c-2.6201172,0-4.9726563-0.5063477-7.0566406-1.5185547c-2.0849609-1.0126953-3.8417969-2.3828125-5.2714844-4.109375
				c-1.4296875-1.7275391-2.53125-3.7226563-3.3046875-5.9858398c-0.7753906-2.2636719-1.1621094-4.6157227-1.1621094-7.0576172
				h8.3974609c0,1.2509766,0.1640625,2.4868164,0.4912109,3.7070313c0.328125,1.2211914,0.8339844,2.3232422,1.5195313,3.3061523
				c0.6845703,0.9824219,1.5488281,1.7719727,2.5898438,2.3671875c1.0429688,0.5957031,2.3085938,0.8935547,3.796875,0.8935547
				c1.1318359,0,2.21875-0.2382813,3.2617188-0.7148438c1.0419922-0.4765625,1.9355469-1.1318359,2.6796875-1.965332
				c0.7441406-0.8339844,1.3398438-1.8017578,1.7871094-2.9033203c0.4462891-1.1020508,0.6699219-2.2485352,0.6699219-3.4394531
				c0-1.7275391-0.3574219-3.2607422-1.0722656-4.6010742c-0.7148438-1.3398438-1.9648438-2.6948242-3.7519531-4.0649414
				c-0.2978516-0.2978516-0.4169922-0.4619141-0.3574219-0.4912109c0.0595703-0.0297852-0.1191406-0.1938477-0.5361328-0.4912109
				c-0.4169922-0.2983398-1.2958984-0.878418-2.6357422-1.7421875s-3.5283203-2.3378906-6.5664063-4.4223633
				c-2.4414063-1.6679688-4.2724609-3.6181641-5.4941406-5.8520508c-1.2207031-2.2329102-1.8310547-4.6894531-1.8310547-7.3696289
				c0-2.144043,0.3867188-4.1542969,1.1611328-6.0302734s1.8613281-3.5288086,3.2617188-4.9584961
				c1.3984375-1.4291992,3.0214844-2.5458984,4.8681641-3.3500977S316.6025391,48.5,318.7460938,48.5
				c2.1445313,0,4.125,0.387207,5.9414063,1.1616211c1.8164063,0.7739258,3.3945313,1.8461914,4.734375,3.2158203
				c1.3398438,1.3701172,2.4121094,3.0078125,3.2167969,4.9135742c0.8037109,1.90625,1.2353516,3.9907227,1.2949219,6.2539063
				h-8.21875c-0.1191406-2.0844727-0.8339844-3.7524414-2.1445313-5.0029297
				c-1.3105469-1.2509766-2.9179688-1.8759766-4.8242188-1.8759766c-1.9648438,0-3.6328125,0.6547852-5.0029297,1.965332
				c-1.3691406,1.3100586-2.0546875,2.9482422-2.0546875,4.9135742c0,1.4887695,0.3876953,2.7397461,1.1611328,3.7519531
				c0.7753906,1.0126953,2.2636719,2.144043,4.4667969,3.3950195c5.7773438,3.3349609,9.9921875,6.7299805,12.6416016,10.1845703
				C332.6083984,84.8305664,333.9335938,88.7314453,333.9335938,93.0795898z"/>
		</g>
		<g>
			<polygon fill-rule="evenodd" clip-rule="evenodd" fill="#FFFFFF" points="359.0361328,57.5234375 359.0361328,109.4282227 
				350.3710938,109.4282227 350.3710938,57.5234375 339.4716797,57.5234375 339.4716797,49.5722656 369.9355469,49.5722656 
				369.9355469,57.5234375 			"/>
		</g>
		<g>
			<path fill-rule="evenodd" clip-rule="evenodd" fill="#FFFFFF" d="M403.078125,109.4282227l-4.1982422-16.3486328H386.015625
				l-3.9316406,16.3486328h-8.6650391l14.9189453-59.855957h8.3974609l14.9199219,59.855957H403.078125z M392.3583984,67.4394531
				l-4.1992188,17.2421875h8.5761719L392.3583984,67.4394531z"/>
		</g>
		<g>
			<polygon fill-rule="evenodd" clip-rule="evenodd" fill="#FFFFFF" points="434.7480469,57.5234375 434.7480469,109.4282227 
				426.0830078,109.4282227 426.0830078,57.5234375 415.1835938,57.5234375 415.1835938,49.5722656 445.6474609,49.5722656 
				445.6474609,57.5234375 			"/>
		</g>
		<g>
			<polygon fill-rule="evenodd" clip-rule="evenodd" fill="#FFFFFF" points="453.7763672,109.4282227 453.7763672,49.5722656 
				481.9179688,49.5722656 481.9179688,57.9697266 462.3525391,57.9697266 462.3525391,73.0678711 474.7705078,73.0678711 
				474.7705078,81.2866211 462.3525391,81.2866211 462.3525391,101.0302734 484.2402344,101.0302734 484.2402344,109.4282227 			"/>
		</g>
	</g>
</g>
<g>
	<path fill-rule="evenodd" clip-rule="evenodd" fill="#FFFFFF" d="M275.9101563,358.5664063
		c0,12.2480469-2.0410156,23.5351563-6.1240234,33.8613281C265.7036133,402.7548828,260,411.5800781,252.675293,418.9052734
		s-16.090332,13.0888672-26.296875,17.2900391C216.171875,440.3984375,204.9443359,442.5,192.6967773,442.5
		c-9.8461914,0-19.0322266-1.5605469-27.5576172-4.6835938c-8.5253906-3.1210938-16.3305664-7.4433594-23.4150391-12.9677734
		c-7.0844727-5.5234375-13.1479492-12.2470703-18.1918945-20.1728516
		c-5.0429688-7.9248047-8.7651367-16.8105469-11.1669922-26.65625l37.4638672-10.8076172
		c2.8818359,11.7675781,8.1655273,20.7734375,15.8505859,27.0175781c7.6845703,6.2431641,17.2910156,9.3662109,28.8183594,9.3662109
		c6.484375,0,12.3681641-1.0810547,17.6513672-3.2431641c5.2832031-2.1611328,9.7861328-5.1025391,13.5087891-8.8251953
		c3.722168-3.7226563,6.6640625-8.1650391,8.8251953-13.328125c2.1621094-5.1640625,3.2421875-10.8671875,3.2421875-17.1113281
		s-1.2006836-12.1269531-3.6025391-17.6513672c-2.4013672-5.5234375-5.7636719-9.8466797-10.0859375-12.9677734
		c-1.440918-0.9609375-2.7021484-1.7412109-3.7827148-2.3417969s-2.4008789-1.0205078-3.9624023-1.2617188
		c-1.5605469-0.2392578-3.6025391-0.4794922-6.1240234-0.7197266c-2.5214844-0.2392578-6.0639648-0.4794922-10.6269531-0.7197266
		H195.21875v-38.9052734v1.0805664h1.0800781h0.7207031h7.5649414c7.6850586,0,13.5688477-2.0415039,17.6508789-6.1245117
		c4.0830078-4.0820313,6.1240234-9.9658203,6.1240234-17.6508789c0-9.3657227-3.3017578-17.1108398-9.90625-23.2348633
		c-6.6040039-6.1235352-14.8291016-9.1855469-24.6757813-9.1855469c-16.0898438,0-28.2177734,7.9248047-36.3828125,23.7749023
		l-35.6630859-13.3286133c6.2441406-15.3696289,15.6699219-27.4379883,28.2783203-36.203125
		C162.6171875,196.8828125,176.8466797,192.5,192.6967773,192.5c10.0864258,0,19.6323242,1.9213867,28.6381836,5.7636719
		c9.0058594,3.8427734,16.8710938,9.1259766,23.5952148,15.8505859
		c6.7241211,6.7241211,12.0083008,14.5888672,15.8500977,23.5942383c3.8427734,9.0063477,5.7636719,18.5522461,5.7636719,28.6391602
		c0,7.2045898-0.9604492,13.6879883-2.8818359,19.4521484c-1.9208984,5.7636719-5.5234375,12.4882813-10.8066406,20.1728516
		c4.5625,4.0830078,8.2851563,7.9853516,11.1669922,11.7070313c2.8818359,3.7226563,5.2236328,7.625,7.0244141,11.7080078
		c1.8012695,4.0830078,3.0625,8.4648438,3.7822266,13.1474609C275.5498047,347.21875,275.9101563,352.5625,275.9101563,358.5664063z
		"/>
	<path fill-rule="evenodd" clip-rule="evenodd" fill="#FFFFFF" d="M488.6347656,349.2011719
		c0,13.4472656-2.5820313,25.8164063-7.7451172,37.1035156s-12.4287109,21.1328125-21.7939453,29.5380859
		c-9.3662109,8.4052734-20.4736328,14.9501953-33.3212891,19.6328125C412.9257813,440.1582031,398.8173828,442.5,383.4472656,442.5
		c-10.5664063,0-20.953125-1.2011719-31.1601563-3.6015625c-10.2070313-2.4023438-19.5126953-5.7646484-27.9179688-10.0869141
		l18.7324219-33.8623047c5.0429688,2.6425781,11.6474609,4.7441406,19.8125,6.3046875s16.6904297,2.3417969,25.5761719,2.3417969
		c8.6455078,0,16.7509766-1.3808594,24.3164063-4.1425781c7.5644531-2.7617188,14.1679688-6.5449219,19.8125-11.3476563
		c5.6425781-4.8027344,10.0253906-10.5068359,13.1484375-17.1113281c3.1210938-6.6035156,4.6826172-13.8691406,4.6826172-21.7929688
		c0-6.0039063-1.1416016-11.5283203-3.4228516-16.5712891c-2.28125-5.0439453-5.4033203-9.4863281-9.3652344-13.3291016
		c-3.9628906-3.8417969-8.5253906-6.84375-13.6894531-9.0058594c-5.1630859-2.1611328-10.7460938-3.2421875-16.75-3.2421875
		c-4.3232422,0-8.1054688,0.3613281-11.3476563,1.0810547c-3.2421875,0.7207031-6.3037109,2.0419922-9.1855469,3.9628906
		s-5.7636719,4.5029297-8.6455078,7.7451172s-6.1240234,7.3847656-9.7265625,12.4277344l-38.1845703-10.8066406
		l6.1240234-124.6401367h138.6884766v38.1845703H373.3603516l-2.5214844,39.6254883
		c8.8857422-2.6416016,15.8505859-4.4428711,20.8935547-5.4033203c5.0429688-0.9609375,10.5664063-1.440918,16.5703125-1.440918
		c11.046875,0,21.4335938,2.1611328,31.1601563,6.4838867s18.2519531,10.206543,25.5761719,17.6513672
		c7.3251953,7.4448242,13.0888672,16.0898438,17.2910156,25.9365234
		C486.5332031,327.7070313,488.6347656,338.1533203,488.6347656,349.2011719z"/>
</g>
</svg>
