<?xml version="1.0" encoding="UTF-8" standalone="no"?>
<svg
   xmlns:dc="http://purl.org/dc/elements/1.1/"
   xmlns:cc="http://creativecommons.org/ns#"
   xmlns:rdf="http://www.w3.org/1999/02/22-rdf-syntax-ns#"
   xmlns:svg="http://www.w3.org/2000/svg"
   xmlns="http://www.w3.org/2000/svg"
   xmlns:sodipodi="http://sodipodi.sourceforge.net/DTD/sodipodi-0.dtd"
   xmlns:inkscape="http://www.inkscape.org/namespaces/inkscape"
   width="600"
   height="600"
   version="1.1"
   id="svg83"
   sodipodi:docname="I-00_template.svg"
   inkscape:version="0.92.3 (2405546, 2018-03-11)">
  <metadata
     id="metadata89">
    <rdf:RDF>
      <cc:Work
         rdf:about="">
        <dc:format>image/svg+xml</dc:format>
        <dc:type
           rdf:resource="http://purl.org/dc/dcmitype/StillImage" />
      </cc:Work>
    </rdf:RDF>
  </metadata>
  <defs
     id="defs87" />
  <sodipodi:namedview
     pagecolor="#ffffff"
     bordercolor="#666666"
     borderopacity="1"
     objecttolerance="10"
     gridtolerance="10"
     guidetolerance="10"
     inkscape:pageopacity="0"
     inkscape:pageshadow="2"
     inkscape:window-width="1920"
     inkscape:window-height="998"
     id="namedview85"
     showgrid="false"
     inkscape:zoom="1.3266667"
     inkscape:cx="300"
     inkscape:cy="300"
     inkscape:window-x="-11"
     inkscape:window-y="-11"
     inkscape:window-maximized="1"
     inkscape:current-layer="g81" />
  <path
     d="m81.119 0.5c34.642 10.582 71.381 16.273 109.44 16.25 38.037 0 74.776-5.681 109.44-16.249 34.642 10.582 71.381 16.273 109.44 16.249s74.776-5.681 109.44-16.25c50.516 63.794 80.666 144.76 80.619 232.11 0 180.7-128.79 332.45-299.5 366.89-170.72-34.642-299.5-185.69-299.5-366.89 0-87.654 30.15-168.72 80.619-232.11z"
     fill="#fff"
     stroke="#000"
     id="path69" />
  <path
     d="m81.119 0.5c34.642 10.582 71.381 16.273 109.44 16.25 38.037 0 74.776-5.681 109.44-16.249 34.642 10.582 71.381 16.273 109.44 16.249s74.776-5.681 109.44-16.25c50.516 63.794 80.666 144.76 80.619 232.11 0 180.7-128.79 332.45-299.5 366.89-170.72-34.642-299.5-185.69-299.5-366.89 0-87.654 30.15-168.72 80.619-232.11z"
     fill="#fff"
     stroke="#000"
     stroke-linecap="round"
     stroke-linejoin="round"
     id="path71" />
  <path
     d="m12.976 231.22c0-32.33 4.1996-63.649 12.08-93.454h549.89c7.8756 29.804 12.085 61.123 12.079 93.454 0 174.78-122.87 321.28-287.02 355.81-164.16-34.855-287.02-180.84-287.02-355.81z"
     fill="#003f87"
     id="path73" />
  <path
     d="m27.959 125.3c12.455-40.266 31.391-77.656 55.773-110.67 33.517 9.3783 68.857 14.381 105.28 14.394 38.58 0 75.742-5.5982 111-16.043 35.238 10.478 72.502 16.024 111 16.043 36.454 0 71.793-5.0127 105.29-14.394 24.302 33.076 43.339 70.363 55.772 110.67h-544.12z"
     fill="#af1e2d"
     id="path75" />
  <g
     fill="#fff"
     id="g81">
    <path
       d="M 108.8685,112.81 V 50.414 h 8.741 v 62.396 z m 50.701,0 -19.25,-41.814 v 41.814 h -8.928 V 50.414 h 8.928 l 17.11,37.437 V 50.414 h 8.928 v 62.396 h -6.789 z m 35.847,-54.106 v 54.106 h -9.019 V 58.704 h -11.346 v -8.29 h 31.712 v 8.29 h -11.346 z m 19.889,54.106 V 50.414 h 29.294 v 8.756 h -20.366 v 15.736 h 12.927 v 8.569 h -12.927 v 20.582 h 22.784 v 8.753 z m 67.899,0 -8.279,-29.335 h -8.554 v 29.335 h -8.928 V 50.414 h 18.6 c 2.42,0 4.63,0.404 6.65,1.211 2.02,0.807 3.75,1.92 5.208,3.354 1.46,1.43 2.57,3.18 3.347,5.262 0.775,2.08 1.16,4.36 1.162,6.845 0,3.72 -0.744,6.89 -2.232,9.499 -1.49,2.61 -3.72,4.47 -6.696,5.586 l 8.928,30.639 h -9.207 z m 0.465,-45.724 c 0,-2.42 -0.744,-4.35 -2.232,-5.774 -1.49,-1.43 -3.44,-2.14 -5.859,-2.141 h -9.207 v 15.736 h 9.207 c 2.6,0 4.6,-0.667 5.998,-2.002 1.4,-1.33 2.09,-3.27 2.093,-5.819 z m 50.894,28.681 c 0,2.55 -0.449,4.92 -1.348,7.125 -0.899,2.2 -2.14,4.11 -3.719,5.727 -1.58,1.61 -3.41,2.9 -5.487,3.865 -2.08,0.962 -4.33,1.44 -6.743,1.444 -2.73,0 -5.18,-0.528 -7.346,-1.583 -2.17,-1.06 -4,-2.48 -5.486,-4.283 -1.49,-1.8 -2.64,-3.88 -3.441,-6.24 -0.801,-2.36 -1.21,-4.81 -1.209,-7.356 h 8.741 c 0,1.3 0.17,2.59 0.511,3.864 0.341,1.27 0.867,2.42 1.581,3.446 0.713,1.02 1.61,1.85 2.698,2.468 1.08,0.621 2.4,0.931 3.952,0.931 1.18,0 2.31,-0.248 3.396,-0.745 1.08,-0.496 2.02,-1.18 2.79,-2.049 0.775,-0.87 1.39,-1.88 1.859,-3.027 0.464,-1.15 0.697,-2.34 0.697,-3.587 0,-1.8 -0.372,-3.4 -1.115,-4.794 -0.744,-1.4 -2.05,-2.81 -3.905,-4.237 -0.31,-0.311 -0.434,-0.482 -0.372,-0.513 0.062,-0.031 -0.123,-0.202 -0.558,-0.512 -0.434,-0.31 -1.35,-0.915 -2.744,-1.816 -1.4,-0.901 -3.67,-2.44 -6.835,-4.608 -2.54,-1.74 -4.45,-3.77 -5.719,-6.102 -1.269,-2.332 -1.91,-4.89 -1.907,-7.682 0,-2.24 0.403,-4.33 1.209,-6.286 0.806,-1.96 1.94,-3.68 3.394,-5.168 1.46,-1.49 3.15,-2.65 5.069,-3.493 1.92,-0.838 4,-1.26 6.229,-1.258 2.23,0 4.29,0.404 6.185,1.211 1.89,0.807 3.53,1.92 4.928,3.354 1.39,1.43 2.51,3.14 3.347,5.123 0.837,1.99 1.29,4.16 1.349,6.518 h -8.557 c -0.123,-2.17 -0.867,-3.91 -2.231,-5.215 -1.36,-1.3 -3.04,-1.96 -5.023,-1.955 -2.05,0 -3.78,0.683 -5.206,2.049 -1.43,1.37 -2.14,3.07 -2.138,5.121 0,1.55 0.403,2.86 1.209,3.911 0.806,1.06 2.36,2.23 4.649,3.538 6.01,3.48 10.4,7.02 13.16,10.616 2.76,3.6 4.14,7.67 4.138,12.199 z m 25.956,-37.062 v 54.106 h -9.019 V 58.705 h -11.346 v -8.29 h 31.712 v 8.29 h -11.346 z m 45.928,54.106 -4.371,-17.043 h -13.393 l -4.09,17.043 h -9.022 l 15.53,-62.396 h 8.744 l 15.53,62.396 z m -11.159,-43.769 -4.371,17.973 h 8.928 z m 44.242,-10.336 v 54.106 h -9.019 V 58.706 h -11.346 v -8.29 h 31.712 v 8.29 h -11.346 z m 19.889,54.106 V 50.416 h 29.294 v 8.756 h -20.366 v 15.736 h 12.927 v 8.569 h -12.927 v 20.582 h 22.784 v 8.753 z"
       id="path77"
       inkscape:connector-curvature="0" />
  </g>
</svg>
