<?xml version="1.0" encoding="UTF-8" standalone="no"?>
<!-- Created with Inkscape (http://www.inkscape.org/) -->

<svg
   xmlns:dc="http://purl.org/dc/elements/1.1/"
   xmlns:cc="http://creativecommons.org/ns#"
   xmlns:rdf="http://www.w3.org/1999/02/22-rdf-syntax-ns#"
   xmlns:svg="http://www.w3.org/2000/svg"
   xmlns="http://www.w3.org/2000/svg"
   xmlns:xlink="http://www.w3.org/1999/xlink"
   xmlns:sodipodi="http://sodipodi.sourceforge.net/DTD/sodipodi-0.dtd"
   xmlns:inkscape="http://www.inkscape.org/namespaces/inkscape"
   width="161.66353mm"
   height="161.66353mm"
   viewBox="0 0 161.66353 161.66353"
   version="1.1"
   id="svg2737"
   inkscape:version="0.92.3 (2405546, 2018-03-11)"
   sodipodi:docname="overlord-19.svg">
  <defs
     id="defs2731">
    <clipPath
       clipPathUnits="userSpaceOnUse"
       id="clipPath3481">
      <g
         id="g3487">
        <rect
           y="139.21649"
           x="248.33035"
           height="52.195869"
           width="6.3311081"
           id="rect3483"
           style="opacity:1;fill:#ffffff;fill-opacity:1;fill-rule:nonzero;stroke:none;stroke-width:1.73014247;stroke-linecap:butt;stroke-linejoin:round;stroke-miterlimit:4;stroke-dasharray:none;stroke-dashoffset:0;stroke-opacity:1;paint-order:stroke fill markers" />
        <rect
           transform="scale(-1,1)"
           style="opacity:1;fill:#ffffff;fill-opacity:1;fill-rule:nonzero;stroke:none;stroke-width:1.73014247;stroke-linecap:butt;stroke-linejoin:round;stroke-miterlimit:4;stroke-dasharray:none;stroke-dashoffset:0;stroke-opacity:1;paint-order:stroke fill markers"
           id="rect3485"
           width="6.3311081"
           height="52.195869"
           x="-270.81995"
           y="139.21649" />
      </g>
    </clipPath>
    <clipPath
       clipPathUnits="userSpaceOnUse"
       id="clipPath3717">
      <circle
         style="opacity:1;fill:#181818;fill-opacity:1;fill-rule:nonzero;stroke:#e9d843;stroke-width:2.55900002;stroke-linecap:butt;stroke-linejoin:round;stroke-miterlimit:4;stroke-dasharray:none;stroke-dashoffset:0;stroke-opacity:1;paint-order:stroke fill markers"
         id="circle3719"
         cx="302.22675"
         cy="125.64011"
         r="59.270782" />
    </clipPath>
  </defs>
  <sodipodi:namedview
     id="base"
     pagecolor="#ffffff"
     bordercolor="#666666"
     borderopacity="1.0"
     inkscape:pageopacity="0.0"
     inkscape:pageshadow="2"
     inkscape:zoom="0.98994949"
     inkscape:cx="507.17004"
     inkscape:cy="397.15754"
     inkscape:document-units="mm"
     inkscape:current-layer="layer2"
     showgrid="false"
     inkscape:window-width="1920"
     inkscape:window-height="1027"
     inkscape:window-x="-8"
     inkscape:window-y="-8"
     inkscape:window-maximized="1"
     fit-margin-top="0"
     fit-margin-left="0"
     fit-margin-right="0"
     fit-margin-bottom="0" />
  <metadata
     id="metadata2734">
    <rdf:RDF>
      <cc:Work
         rdf:about="">
        <dc:format>image/svg+xml</dc:format>
        <dc:type
           rdf:resource="http://purl.org/dc/dcmitype/StillImage" />
        <dc:title></dc:title>
      </cc:Work>
    </rdf:RDF>
  </metadata>
  <g
     inkscape:groupmode="layer"
     id="layer2"
     inkscape:label="Art"
     style="display:inline"
     transform="translate(-20.062477,-47.654792)">
    <circle
       style="opacity:1;fill:#181818;fill-opacity:1;fill-rule:nonzero;stroke:#000000;stroke-width:0.4879007;stroke-linecap:butt;stroke-linejoin:round;stroke-miterlimit:4;stroke-dasharray:none;stroke-dashoffset:0;stroke-opacity:1;paint-order:stroke fill markers"
       id="path3293"
       cx="100.89424"
       cy="128.48656"
       r="80.587814" />
    <circle
       r="76.057945"
       cy="128.48656"
       cx="100.89424"
       id="circle3348"
       style="opacity:1;fill:#370060;fill-opacity:1;fill-rule:nonzero;stroke:#000000;stroke-width:0.46047562;stroke-linecap:butt;stroke-linejoin:round;stroke-miterlimit:4;stroke-dasharray:none;stroke-dashoffset:0;stroke-opacity:1;paint-order:stroke fill markers" />
    <circle
       r="59.270782"
       cy="128.48656"
       cx="100.89424"
       id="circle3295"
       style="opacity:1;fill:#181818;fill-opacity:1;fill-rule:nonzero;stroke:#e9d843;stroke-width:2.55900002;stroke-linecap:butt;stroke-linejoin:round;stroke-miterlimit:4;stroke-dasharray:none;stroke-dashoffset:0;stroke-opacity:1;paint-order:stroke fill markers" />
    <text
       transform="translate(-201.3325,2.8464449)"
       xml:space="preserve"
       style="font-style:normal;font-variant:normal;font-weight:bold;font-stretch:normal;font-size:7.05555534px;line-height:1.25;font-family:'Century Gothic';-inkscape-font-specification:'Century Gothic Bold';text-align:center;letter-spacing:0px;word-spacing:0px;text-anchor:middle;display:inline;fill:#c1c1c1;fill-opacity:0.37647059;stroke:none;stroke-width:0.26458332;stroke-opacity:1"
       x="302.2543"
       y="63.58897"
       id="text3512"
       clip-path="url(#clipPath3717)"><tspan
         sodipodi:role="line"
         x="302.2543"
         y="63.58897"
         style="fill:#c1c1c1;fill-opacity:0.37647059;stroke:none;stroke-width:0.26458332;stroke-opacity:1"
         id="tspan3545">★★★★★★★★★★★★★★★★★★★★</tspan><tspan
         sodipodi:role="line"
         x="302.2543"
         y="72.948166"
         style="fill:#c1c1c1;fill-opacity:0.37647059;stroke:none;stroke-width:0.26458332;stroke-opacity:1"
         id="tspan3637">★★★★★★★★★★★★★★★★★★★</tspan><tspan
         sodipodi:role="line"
         x="302.2543"
         y="82.307365"
         style="fill:#c1c1c1;fill-opacity:0.37647059;stroke:none;stroke-width:0.26458332;stroke-opacity:1"
         id="tspan3639">★★★★★★★★★★★★★★★★★★★★</tspan><tspan
         sodipodi:role="line"
         x="302.2543"
         y="91.666557"
         style="fill:#c1c1c1;fill-opacity:0.37647059;stroke:none;stroke-width:0.26458332;stroke-opacity:1"
         id="tspan3641">★★★★★★★★★★★★★★★★★★★</tspan><tspan
         sodipodi:role="line"
         x="302.2543"
         y="101.02576"
         style="fill:#c1c1c1;fill-opacity:0.37647059;stroke:none;stroke-width:0.26458332;stroke-opacity:1"
         id="tspan3643">★★★★★★★★★★★★★★★★★★★★</tspan><tspan
         sodipodi:role="line"
         x="302.2543"
         y="110.38496"
         style="fill:#c1c1c1;fill-opacity:0.37647059;stroke:none;stroke-width:0.26458332;stroke-opacity:1"
         id="tspan3645">★★★★★★★★★★★★★★★★★★★</tspan><tspan
         sodipodi:role="line"
         x="302.2543"
         y="119.74415"
         style="fill:#c1c1c1;fill-opacity:0.37647059;stroke:none;stroke-width:0.26458332;stroke-opacity:1"
         id="tspan3647">★★★★★★★★★★★★★★★★★★★★</tspan><tspan
         sodipodi:role="line"
         x="302.2543"
         y="129.10335"
         style="fill:#c1c1c1;fill-opacity:0.37647059;stroke:none;stroke-width:0.26458332;stroke-opacity:1"
         id="tspan3649">★★★★★★★★★★★★★★★★★★★</tspan><tspan
         sodipodi:role="line"
         x="302.2543"
         y="138.46254"
         style="fill:#c1c1c1;fill-opacity:0.37647059;stroke:none;stroke-width:0.26458332;stroke-opacity:1"
         id="tspan3651">★★★★★★★★★★★★★★★★★★★★</tspan><tspan
         sodipodi:role="line"
         x="302.2543"
         y="147.82175"
         style="fill:#c1c1c1;fill-opacity:0.37647059;stroke:none;stroke-width:0.26458332;stroke-opacity:1"
         id="tspan3653">★★★★★★★★★★★★★★★★★★★</tspan><tspan
         sodipodi:role="line"
         x="302.2543"
         y="157.18094"
         style="fill:#c1c1c1;fill-opacity:0.37647059;stroke:none;stroke-width:0.26458332;stroke-opacity:1"
         id="tspan3655">★★★★★★★★★★★★★★★★★★★★</tspan><tspan
         sodipodi:role="line"
         x="302.2543"
         y="166.54013"
         style="fill:#c1c1c1;fill-opacity:0.37647059;stroke:none;stroke-width:0.26458332;stroke-opacity:1"
         id="tspan3657">★★★★★★★★★★★★★★★★★★★</tspan><tspan
         sodipodi:role="line"
         x="302.2543"
         y="175.89934"
         style="fill:#c1c1c1;fill-opacity:0.37647059;stroke:none;stroke-width:0.26458332;stroke-opacity:1"
         id="tspan3661">★★★★★★★★★★★★★★★★★★★★</tspan><tspan
         sodipodi:role="line"
         x="302.2543"
         y="185.25853"
         style="fill:#c1c1c1;fill-opacity:0.37647059;stroke:none;stroke-width:0.26458332;stroke-opacity:1"
         id="tspan3663">★★★★★★★★★★★★★★★★★★★</tspan><tspan
         sodipodi:role="line"
         x="302.2543"
         y="194.61772"
         style="fill:#c1c1c1;fill-opacity:0.37647059;stroke:none;stroke-width:0.26458332;stroke-opacity:1"
         id="tspan3665">★★★★★★★★★★★★★★★★★★★★</tspan><tspan
         sodipodi:role="line"
         x="302.2543"
         y="203.97693"
         style="fill:#c1c1c1;fill-opacity:0.37647059;stroke:none;stroke-width:0.26458332;stroke-opacity:1"
         id="tspan3667">★★★★★★★★★★★★★★★★★★★</tspan><tspan
         sodipodi:role="line"
         x="302.2543"
         y="213.33612"
         style="fill:#c1c1c1;fill-opacity:0.37647059;stroke:none;stroke-width:0.26458332;stroke-opacity:1"
         id="tspan3669">★★★★★★★★★★★★★★★★★★★★</tspan><tspan
         sodipodi:role="line"
         x="302.2543"
         y="222.69531"
         style="fill:#c1c1c1;fill-opacity:0.37647059;stroke:none;stroke-width:0.26458332;stroke-opacity:1"
         id="tspan3671">★★★★★★★★★★★★★★★★★★★</tspan><tspan
         sodipodi:role="line"
         x="302.2543"
         y="232.05452"
         style="fill:#c1c1c1;fill-opacity:0.37647059;stroke:none;stroke-width:0.26458332;stroke-opacity:1"
         id="tspan3673">★★★★★★★★★★★★★★★★★★★★</tspan><tspan
         sodipodi:role="line"
         x="302.2543"
         y="241.41371"
         style="fill:#c1c1c1;fill-opacity:0.37647059;stroke:none;stroke-width:0.26458332;stroke-opacity:1"
         id="tspan3675">★★★★★★★★★★★★★★★★★★★</tspan><tspan
         sodipodi:role="line"
         x="302.2543"
         y="250.7729"
         style="fill:#c1c1c1;fill-opacity:0.37647059;stroke:none;stroke-width:0.26458332;stroke-opacity:1"
         id="tspan3677">★★★★★★★★★★★★★★★★★★★★</tspan><tspan
         sodipodi:role="line"
         x="302.2543"
         y="260.13211"
         style="fill:#c1c1c1;fill-opacity:0.37647059;stroke:none;stroke-width:0.26458332;stroke-opacity:1"
         id="tspan3679">★★★★★★★★★★★★★★★★★★★</tspan><tspan
         sodipodi:role="line"
         x="302.2543"
         y="269.4913"
         style="fill:#c1c1c1;fill-opacity:0.37647059;stroke:none;stroke-width:0.26458332;stroke-opacity:1"
         id="tspan3681">★★★★★★★★★★★★★★★★★★★★</tspan><tspan
         sodipodi:role="line"
         x="302.2543"
         y="278.85049"
         style="fill:#c1c1c1;fill-opacity:0.37647059;stroke:none;stroke-width:0.26458332;stroke-opacity:1"
         id="tspan3683">★★★★★★★★★★★★★★★★★★★</tspan><tspan
         sodipodi:role="line"
         x="302.2543"
         y="288.20969"
         style="fill:#c1c1c1;fill-opacity:0.37647059;stroke:none;stroke-width:0.26458332;stroke-opacity:1"
         id="tspan3685">★★★★★★★★★★★★★★★★★★★★</tspan></text>
    <g
       id="g3506"
       transform="translate(-201.3325,2.8464449)"
       style="stroke:#c1c1c1;stroke-opacity:1">
      <path
         inkscape:connector-curvature="0"
         id="path3412"
         d="m 274.07977,77.616967 c -4.2511,3.039771 -8.04064,6.701159 -11.24686,10.86652 -4.92015,17.777613 6.03994,27.140973 6.03994,27.140973 -9.24239,-7.93537 -11.63482,-13.9747 -12.23853,-16.897156 -1.64487,3.538246 -2.90752,7.248566 -3.76566,11.065476 1.48393,6.85345 7.98608,13.0483 7.98608,13.0483 -5.49375,-2.46515 -7.9788,-4.66971 -9.10229,-6.20428 -0.16395,1.70664 -0.2481,3.42028 -0.25218,5.13509 0.0106,2.82349 0.23837,5.64179 0.6811,8.42894 4.76829,2.94121 15.08796,4.93459 15.08796,4.93459 -7.89852,1.2477 -12.72164,-1.30788 -14.54381,-2.11719 0.73423,3.51126 1.80995,6.93905 3.21117,10.23245 5.47015,2.35431 14.40584,2.0407 14.40584,2.0407 -5.58128,2.8396 -9.93211,3.16661 -11.86491,3.13935 2.59874,4.65973 5.8633,8.89857 9.68623,12.57701 l 19.95227,-14.91434 -1.73736,-31.40428 c 0,0 -19.01086,-11.20143 -12.29899,-37.072153 z"
         style="opacity:1;fill:#e4e4e4;fill-opacity:1;fill-rule:nonzero;stroke:#c1c1c1;stroke-width:1;stroke-linecap:butt;stroke-linejoin:miter;stroke-miterlimit:4;stroke-dasharray:none;stroke-dashoffset:0;stroke-opacity:1;paint-order:stroke fill markers"
         sodipodi:nodetypes="cccccccccccccccccc" />
      <path
         sodipodi:nodetypes="cccccccccccccccccc"
         style="opacity:1;fill:#e4e4e4;fill-opacity:1;fill-rule:nonzero;stroke:#c1c1c1;stroke-width:1;stroke-linecap:butt;stroke-linejoin:miter;stroke-miterlimit:4;stroke-dasharray:none;stroke-dashoffset:0;stroke-opacity:1;paint-order:stroke fill markers"
         d="m 332.00505,77.616967 c 4.2511,3.039771 8.04064,6.701159 11.24686,10.86652 4.92015,17.777613 -6.03994,27.140973 -6.03994,27.140973 9.24239,-7.93537 11.63482,-13.9747 12.23853,-16.897156 1.64487,3.538246 2.90752,7.248566 3.76566,11.065476 -1.48393,6.85345 -7.98608,13.0483 -7.98608,13.0483 5.49375,-2.46515 7.9788,-4.66971 9.10229,-6.20428 0.16395,1.70664 0.2481,3.42028 0.25218,5.13509 -0.0106,2.82349 -0.23837,5.64179 -0.6811,8.42894 -4.76829,2.94121 -15.08796,4.93459 -15.08796,4.93459 7.89852,1.2477 12.72164,-1.30788 14.54381,-2.11719 -0.73423,3.51126 -1.80995,6.93905 -3.21117,10.23245 -5.47015,2.35431 -14.40584,2.0407 -14.40584,2.0407 5.58128,2.8396 9.93211,3.16661 11.86491,3.13935 -2.59874,4.65973 -5.8633,8.89857 -9.68623,12.57701 l -19.95227,-14.91434 1.73736,-31.40428 c 0,0 19.01086,-11.20143 12.29899,-37.072153 z"
         id="path3508"
         inkscape:connector-curvature="0" />
      <g
         transform="translate(43.467262,-9.2604167)"
         id="g3491"
         style="stroke:#c1c1c1;stroke-opacity:1">
        <path
           style="opacity:1;vector-effect:none;fill:#a70000;fill-opacity:1;stroke:#c1c1c1;stroke-width:0.5;stroke-linecap:butt;stroke-linejoin:miter;stroke-miterlimit:4;stroke-dasharray:none;stroke-dashoffset:0;stroke-opacity:1"
           d="m 275.63914,166.31473 c -1.70089,7.84301 -6.80357,19.65476 -16.06399,24.47396 -9.26042,-4.8192 -14.3631,-16.63095 -16.06399,-24.47396 -1.7009,-7.843 -1.13393,-26.55283 -1.13393,-26.55283 h 34.39583 c 0,0 0.56698,18.70983 -1.13392,26.55283 z"
           id="path3425"
           inkscape:connector-curvature="0"
           sodipodi:nodetypes="cccccc" />
        <path
           sodipodi:nodetypes="cccccc"
           inkscape:connector-curvature="0"
           id="path3451"
           d="m 275.63914,166.31473 c -1.70089,7.84301 -6.80357,19.65476 -16.06399,24.47396 -9.26042,-4.8192 -14.3631,-16.63095 -16.06399,-24.47396 -1.7009,-7.843 -1.13393,-26.55283 -1.13393,-26.55283 h 34.39583 c 0,0 0.56698,18.70983 -1.13392,26.55283 z"
           style="opacity:1;vector-effect:none;fill:#ffffff;fill-opacity:1;stroke:#c1c1c1;stroke-width:0.5;stroke-linecap:butt;stroke-linejoin:miter;stroke-miterlimit:4;stroke-dasharray:none;stroke-dashoffset:0;stroke-opacity:1"
           clip-path="url(#clipPath3481)" />
      </g>
    </g>
    <circle
       style="opacity:1;fill:#370060;fill-opacity:1;fill-rule:nonzero;stroke:#000000;stroke-width:0.13137479;stroke-linecap:butt;stroke-linejoin:round;stroke-miterlimit:4;stroke-dasharray:none;stroke-dashoffset:0;stroke-opacity:1;paint-order:stroke fill markers"
       id="circle3297"
       cx="100.89424"
       cy="128.48656"
       r="21.699512" />
    <path
       style="opacity:1;fill:none;fill-opacity:0.22222224;fill-rule:nonzero;stroke:none;stroke-width:0.09069985;stroke-linecap:butt;stroke-linejoin:round;stroke-miterlimit:4;stroke-dasharray:none;stroke-dashoffset:0;stroke-opacity:1;paint-order:stroke fill markers"
       d="m 100.89424,143.46769 a 14.981129,14.981129 0 0 1 -14.981128,-14.98113 14.981129,14.981129 0 0 1 14.981128,-14.98113 14.981129,14.981129 0 0 1 14.98113,14.98113 14.981129,14.981129 0 0 1 -14.98113,14.98113 z"
       id="circle3354"
       inkscape:connector-curvature="0" />
    <text
       xml:space="preserve"
       style="font-style:normal;font-variant:normal;font-weight:bold;font-stretch:normal;font-size:7.05555534px;line-height:1.25;font-family:'Century Gothic';-inkscape-font-specification:'Century Gothic Bold';text-align:center;letter-spacing:0.18520834px;word-spacing:0px;text-anchor:middle;fill:#c1c1c1;fill-opacity:1;stroke:none;stroke-width:0.26458332"
       id="text3352"><textPath
         xlink:href="#circle3354"
         startOffset="50%"
         id="textPath3357"
         style="letter-spacing:0.18520834px;fill:#c1c1c1;fill-opacity:1">★★★★★★★★★★★★★</textPath></text>
    <g
       id="g3386"
       transform="matrix(0.75086533,0,0,0.75086533,87.378665,114.97097)">
      <circle
         style="fill:#1b75a2;fill-opacity:1;stroke:#c1c1c1;stroke-opacity:1"
         cx="18"
         cy="18"
         r="18"
         id="circle3721" />
      <path
         id="path3374"
         d="M 30.13,23.748 C 29.113,23.358 29.294,23.5 28.667,22.167 28.04,20.835 27.66,20.406 26.25,20.25 24.839,20.095 24.892,20.205 24.5,19.5 c -0.392,-0.706 -1.982,0.191 -3,0.584 -1.021,0.392 -0.769,1.246 -1.083,1.166 -0.315,-0.078 -1.107,-0.281 -1.893,-0.907 -0.784,-0.628 0.583,-1.118 0.976,-1.509 0.393,-0.393 -0.74,-0.179 -1.133,-0.416 -0.393,-0.234 -1.096,0.471 -1.723,-0.158 -0.628,-0.627 -0.235,-1.568 -0.313,-2.352 -0.079,-0.785 1.018,-0.941 1.724,-1.098 0.705,-0.156 1.253,10e-4 1.253,0.941 0,0.941 0.863,1.255 0.628,0.156 -0.235,-1.099 0.235,-1.411 0.55,-1.96 0.313,-0.549 0.862,-1.334 1.567,-2.51 0.706,-1.176 1.177,-0.628 2.039,-0.544 0.863,0.085 1.098,-0.083 1.725,-0.004 0.625,0.079 0,-0.784 0.236,-1.646 C 26.287,8.381 27.15,8.537 28.014,8.773 28.876,9.008 27.15,7.674 26.837,6.969 26.522,6.263 25.66,6.969 25.113,5.793 24.56,4.617 23.789,3.856 23.083,3.751 22.377,3.645 23.308,5.245 22.759,6.107 22.208,6.969 21.364,6.834 20.499,6.834 19.638,6.834 18.838,6.107 19.466,5.009 20.092,3.912 21.289,4.025 21.916,3.084 22.544,2.144 19.686,2.23 18.666,1.917 17.646,1.603 16.422,1.606 15.403,2.39 14.383,3.173 12.202,3.418 11.339,3.731 10.477,4.044 10.322,3.211 10.166,2.583 10.096,2.304 9.778,2.216 9.33,2.226 7.11,3.45 5.187,5.138 3.664,7.147 3.901,7.954 5.049,6.958 5.274,6.733 5.509,6.498 6.685,6.812 6.841,7.674 6.998,8.536 6.92,9.479 6.607,10.263 c -0.314,0.783 0.784,1.881 1.411,2.979 0.628,1.099 1.333,1.098 1.647,1.098 0.313,0 2.117,0.706 2.038,1.568 -0.078,0.863 1.647,1.646 2.353,2.195 0.706,0.551 1.152,1.092 2.068,1.25 0.917,0.158 1.989,1.657 2.459,1.815 0.361,0.12 0.972,0.697 1.341,0.876 -0.485,0.614 -1.424,1.875 -1.424,2.456 0,0.786 1.025,2.021 1.417,2.334 0.391,0.312 1.517,0.55 1.75,1.333 0.236,0.784 -0.164,3.423 -0.868,4.128 -0.708,0.705 -0.965,2.372 -0.965,2.372 0,0 0.249,0.541 1.083,0 C 21.839,34.07 23.383,32.37 24,32 c 1.176,-0.707 2.319,-1.565 3.417,-2.583 1.098,-1.019 0.7,-1.733 1.25,-2.75 0.549,-1.019 1.259,-0.973 2.199,-1.833 0.942,-0.864 0.284,-0.693 -0.736,-1.086 z"
         inkscape:connector-curvature="0"
         style="fill:#181818;fill-opacity:1" />
      <circle
         id="circle3372"
         r="18"
         cy="18"
         cx="18"
         style="fill:none;fill-opacity:1;stroke:#c1c1c1;stroke-opacity:1" />
    </g>
  </g>
  <g
     inkscape:label="Text"
     inkscape:groupmode="layer"
     id="layer1"
     style="display:inline"
     sodipodi:insensitive="true"
     transform="translate(-20.062477,-47.654792)">
    <path
       style="opacity:1;fill:none;fill-opacity:0.22222224;fill-rule:nonzero;stroke:none;stroke-width:0.44553721;stroke-linecap:butt;stroke-linejoin:round;stroke-miterlimit:4;stroke-dasharray:none;stroke-dashoffset:0;stroke-opacity:1;paint-order:stroke fill markers"
       d="M 100.89424,54.896024 A 73.590533,73.590533 0 0 0 27.303708,128.48656 73.590533,73.590533 0 0 0 100.89424,202.07709 73.590533,73.590533 0 0 0 174.48478,128.48656 73.590533,73.590533 0 0 0 100.89424,54.896024 Z"
       id="circle3330"
       inkscape:connector-curvature="0" />
    <text
       xml:space="preserve"
       style="font-style:normal;font-variant:normal;font-weight:bold;font-stretch:normal;font-size:11.28888893px;line-height:1.25;font-family:'Century Gothic';-inkscape-font-specification:'Century Gothic Bold';text-align:center;letter-spacing:0.39687499px;word-spacing:0px;text-anchor:middle;fill:#c1c1c1;fill-opacity:1;stroke:none;stroke-width:0.26458332"
       id="text3319"><textPath
         xlink:href="#circle3321"
         startOffset="50%"
         id="textPath3323"><tspan
   style="font-size:11.28888893px;letter-spacing:0.39687499px;fill:#c1c1c1;fill-opacity:1;stroke-width:0.26458332"
   id="tspan3317">★ ★ ★ SLC35 ★ ★ OVERLORD-19 ★ ★ ARES ★ ★ ★</tspan></textPath></text>
    <circle
       style="opacity:1;fill:none;fill-opacity:0.22222224;fill-rule:nonzero;stroke:none;stroke-width:0.39306352;stroke-linecap:butt;stroke-linejoin:round;stroke-miterlimit:4;stroke-dasharray:none;stroke-dashoffset:0;stroke-opacity:1;paint-order:stroke fill markers"
       id="circle3321"
       cx="128.48656"
       cy="-100.89424"
       r="64.923317"
       transform="rotate(90)" />
    <text
       xml:space="preserve"
       style="font-style:normal;font-variant:normal;font-weight:bold;font-stretch:normal;font-size:11.28888893px;line-height:1.25;font-family:'Century Gothic';-inkscape-font-specification:'Century Gothic Bold';text-align:center;letter-spacing:0.79374999px;word-spacing:0px;text-anchor:middle;fill:#c1c1c1;fill-opacity:1;stroke:none;stroke-width:0.26458332"
       id="text3328"><textPath
         xlink:href="#circle3330"
         startOffset="50%"
         id="textPath3337"><tspan
   style="font-size:11.28888893px;letter-spacing:0.79374999px;fill:#c1c1c1;fill-opacity:1;stroke-width:0.26458332"
   id="tspan3326">EVER VIGILANT</tspan></textPath></text>
  </g>
</svg>
