<?xml version="1.0" encoding="UTF-8" standalone="no"?>
<!-- Created with Inkscape (http://www.inkscape.org/) -->

<svg
   width="153.72427mm"
   height="97.138237mm"
   viewBox="0 0 153.72427 97.138237"
   version="1.1"
   id="svg5"
   inkscape:version="1.1.1 (3bf5ae0d25, 2021-09-20)"
   sodipodi:docname="rancid vintage PRT logo.svg"
   inkscape:export-filename="C:\Users\Keira\prt_vintage"
   inkscape:export-xdpi="96"
   inkscape:export-ydpi="96"
   xmlns:inkscape="http://www.inkscape.org/namespaces/inkscape"
   xmlns:sodipodi="http://sodipodi.sourceforge.net/DTD/sodipodi-0.dtd"
   xmlns="http://www.w3.org/2000/svg"
   xmlns:svg="http://www.w3.org/2000/svg">
  <sodipodi:namedview
     id="namedview7"
     pagecolor="#505050"
     bordercolor="#eeeeee"
     borderopacity="1"
     inkscape:pageshadow="0"
     inkscape:pageopacity="0"
     inkscape:pagecheckerboard="0"
     inkscape:document-units="mm"
     showgrid="false"
     showguides="false"
     fit-margin-top="10"
     fit-margin-left="10"
     fit-margin-right="10"
     fit-margin-bottom="10"
     inkscape:zoom="1"
     inkscape:cx="171.5"
     inkscape:cy="216.5"
     inkscape:window-width="2560"
     inkscape:window-height="1387"
     inkscape:window-x="1912"
     inkscape:window-y="-8"
     inkscape:window-maximized="1"
     inkscape:current-layer="layer1" />
  <defs
     id="defs2" />
  <g
     inkscape:label="Layer 1"
     inkscape:groupmode="layer"
     id="layer1"
     transform="translate(-35.251173,-39.643706)">
    <path
       id="path29541"
       style="fill:#000000;fill-opacity:1;stroke:none;stroke-width:0.160376px;stroke-linecap:butt;stroke-linejoin:miter;stroke-opacity:1"
       d="m 141.12109,49.644531 c -0.66753,0.06359 -1.41644,-0.121822 -1.96679,0.38086 0.0109,1.59375 0.0214,3.187505 0.0332,4.78125 8.58374,0.220103 17.14884,1.457421 25.354,4.154215 2.72809,0.917843 5.44707,2.031701 7.94724,3.456688 0.55272,0.378453 1.32402,0.652969 1.70535,1.145215 -0.56662,11.926731 -3.32138,23.702966 -7.76139,34.807081 -2.59034,6.39593 -5.79164,12.59033 -10.05182,18.00376 -0.83991,1.09141 -1.85549,2.05357 -2.67882,3.14485 -0.26399,0.5179 -0.84935,1.27929 -0.17472,1.7296 0.74365,0.0942 1.44481,-0.3807 2.08645,-0.71519 2.71516,-1.94418 4.842,-4.59316 6.79268,-7.27723 4.43808,-6.42234 7.68937,-13.588424 10.39103,-20.889376 2.82526,-7.870666 4.94975,-16.033632 5.84506,-24.359305 0.25511,-2.397945 0.357,-4.81051 0.32814,-7.221793 -5.65119,-4.539981 -12.63237,-6.984154 -19.57416,-8.754359 -5.97367,-1.479276 -12.109,-2.41893 -18.27545,-2.386266 z" />
    <text
       xml:space="preserve"
       style="font-style:normal;font-variant:normal;font-weight:normal;font-stretch:normal;font-size:75.9502px;line-height:1.25;font-family:Arial;-inkscape-font-specification:Arial;letter-spacing:0px;fill:#000000;fill-opacity:1;stroke:none;stroke-width:1.89876"
       x="42.178642"
       y="109.48601"
       id="text4214"
       inkscape:export-filename="C:\Users\Keira\prt_vintage.png"
       inkscape:export-xdpi="96"
       inkscape:export-ydpi="96"><tspan
         sodipodi:role="line"
         id="tspan4212"
         style="font-style:normal;font-variant:normal;font-weight:normal;font-stretch:normal;font-family:'Sitka Small';-inkscape-font-specification:'Sitka Small';stroke-width:1.89876"
         x="42.178642"
         y="109.48601">prt</tspan></text>
    <text
       xml:space="preserve"
       style="font-style:normal;font-variant:normal;font-weight:normal;font-stretch:normal;font-size:9.61494px;line-height:1.25;font-family:Arial;-inkscape-font-specification:Arial;letter-spacing:0px;fill:#000000;fill-opacity:1;stroke:none;stroke-width:4.70458"
       x="60.042427"
       y="118.18307"
       id="text74492"><tspan
         sodipodi:role="line"
         id="tspan74490"
         style="font-style:normal;font-variant:normal;font-weight:normal;font-stretch:normal;font-size:9.61494px;font-family:'Sitka Small';-inkscape-font-specification:'Sitka Small';stroke-width:4.70458"
         x="60.042427"
         y="118.18307">protecting america</tspan></text>
  </g>
</svg>
